HIERARCHY
ROOT Hips
{
	OFFSET 0.00000 0.00000 0.00000
	CHANNELS 6 Xposition Yposition Zposition Zrotation Yrotation Xrotation 
	JOINT LHipJoint
	{
		OFFSET 0 0 0
		CHANNELS 3 Zrotation Yrotation Xrotation
		JOINT LeftHip
		{
			OFFSET 1.38615 -1.80049 0.80104
			CHANNELS 3 Zrotation Yrotation Xrotation
			JOINT LeftKnee
			{
				OFFSET 2.50172 -6.87341 0.00000
				CHANNELS 3 Zrotation Yrotation Xrotation
				JOINT LeftAnkle
				{
					OFFSET 2.67523 -7.35014 0.00000
					CHANNELS 3 Zrotation Yrotation Xrotation
					JOINT LeftToe
					{
						OFFSET 0.17446 -0.47932 2.13155
						CHANNELS 3 Zrotation Yrotation Xrotation
						End Site
						{
							OFFSET 0.00000 -0.00000 1.10023
						}
					}
				}
			}
		}
	}
	JOINT RHipJoint
	{
		OFFSET 0 0 0
		CHANNELS 3 Zrotation Yrotation Xrotation
		JOINT RightHip
		{
			OFFSET -1.18047 -1.80049 0.80104
			CHANNELS 3 Zrotation Yrotation Xrotation
			JOINT RightKnee
			{
				OFFSET -2.59789 -7.13765 0.00000
				CHANNELS 3 Zrotation Yrotation Xrotation
				JOINT RightAnkle
				{
					OFFSET -2.62125 -7.20183 0.00000
					CHANNELS 3 Zrotation Yrotation Xrotation
					JOINT RightToe
					{
						OFFSET -0.31287 -0.85960 2.07814
						CHANNELS 3 Zrotation Yrotation Xrotation
						End Site
						{
							OFFSET -0.00000 -0.00000 1.11766
						}
					}
				}
			}
		}
	}
	JOINT lowerback
	{
		OFFSET 0 0 0
		CHANNELS 3 Zrotation Yrotation Xrotation
		JOINT Chest
		{
			OFFSET -0.01587 2.16157 -0.12309
			CHANNELS 3 Zrotation Yrotation Xrotation
			JOINT Chest2
			{
				OFFSET 0.04727 2.16674 -0.03569
				CHANNELS 3 Zrotation Yrotation Xrotation
				JOINT lowerneck
				{
					OFFSET 0 0 0
					CHANNELS 3 Zrotation Yrotation Xrotation
					JOINT Neck
					{
						OFFSET -0.08586 1.60335 0.32783
						CHANNELS 3 Zrotation Yrotation Xrotation
						JOINT Head
						{
							OFFSET 0.07583 1.65857 -0.31618
							CHANNELS 3 Zrotation Yrotation Xrotation
							End Site
							{
								OFFSET 0.03386 1.69434 -0.14584
							}
						}
					}
				}
				JOINT LeftCollar
				{
					OFFSET 0 0 0
					CHANNELS 3 Zrotation Yrotation Xrotation
					JOINT LeftShoulder
					{
						OFFSET 3.17393 1.01901 -0.52897
CHANNELS 3 Zrotation Xrotation Yrotation
						JOINT LeftElbow
						{
OFFSET 0 -5.252870 -0.000000
CHANNELS 3 Zrotation Xrotation Yrotation
							JOINT LeftWrist
							{
OFFSET 0 -3.510140 0.000000
CHANNELS 3 Zrotation Xrotation Yrotation
								JOINT lhand
								{
									OFFSET 0 0 0
CHANNELS 3 Zrotation Xrotation Yrotation
									JOINT LFingers
									{
OFFSET 0 -0.706180 -0.000000
CHANNELS 3 Zrotation Xrotation Yrotation
										End Site
										{
OFFSET 0 -0.569340 -0.000000
										}
									}
								}
								JOINT LThumb
								{
OFFSET 0 0.000000 0.000000
CHANNELS 3 Zrotation Xrotation Yrotation
									End Site
									{
OFFSET 0 -0.578030 0.578030
									}
								}
							}
						}
					}
				}
				JOINT RightCollar
				{
					OFFSET 0 0 0
					CHANNELS 3 Zrotation Yrotation Xrotation
					JOINT RightShoulder
					{
						OFFSET -2.99471 1.26495 -0.61125
CHANNELS 3 Zrotation Xrotation Yrotation
						JOINT RightElbow
						{
OFFSET 0 -5.287210 -0.000000
CHANNELS 3 Zrotation Xrotation Yrotation
							JOINT RightWrist
							{
OFFSET 0 -3.505440 0.000000
CHANNELS 3 Zrotation Xrotation Yrotation
								JOINT rhand
								{
									OFFSET 0 0 0
CHANNELS 3 Zrotation Xrotation Yrotation
									JOINT RFingers
									{
OFFSET 0 -0.885000 -0.000000
CHANNELS 3 Zrotation Xrotation Yrotation
										End Site
										{
OFFSET 0 -0.713510 -0.000000
										}
									}
								}
								JOINT RThumb
								{
OFFSET 0 0.000000 0.000000
CHANNELS 3 Zrotation Xrotation Yrotation
									End Site
									{
OFFSET 0 -0.724400 0.724400
									}
								}
							}
						}
					}
				}
			}
		}
	}
}
MOTION
Frames: 10
Frame Time: 0.008333333333333333
-10.923500 17.061600 -3.409100 7.993500 21.934600 7.687300 0.000000 0.000000 0.000000 -25.308400 3.747800 14.088100 0.364100 3.876300 10.728900 0.055700 -14.207600 -10.614900 1.465200 -7.649700 -21.655100 0.000000 0.000000 0.000000 6.686300 2.504900 -43.342900 -3.031100 -10.745200 31.425400 0.627100 -14.502300 -9.955200 -0.463200 4.365600 -12.107500 -5.916200 -3.755500 0.565200 5.151300 -5.004400 -4.797200 8.951800 -2.155200 -4.363100 -8.020700 2.188500 -2.888500 17.151600 4.617700 -11.397700 6.564700 2.057900 -3.393100 -0.000000 0.000000 0.000000 246.723300 -74.985400 -144.342500 31.040200 -41.768500 12.096600 8.179400 -58.422100 -53.465700 0.000000 0.000000 0.000000 -7.125000 0.000000 0.000000 -70.143300 74.421600 54.315600 -0.000000 0.000000 0.000000 -240.070100 -77.705900 165.141100 -33.457300 -43.678600 -13.736900 -39.295700 -44.795700 -17.413900 0.000000 0.000000 0.000000 7.125000 0.000000 -0.000000 -7.298600 8.063900 -6.254900
-10.913972 17.063052 -3.350800 7.859267 21.747964 7.562014 0.000000 0.000000 0.000000 -25.199033 3.683806 13.947825 0.420076 4.138781 11.470477 0.048380 -14.172887 -10.507915 1.533464 -7.812923 -22.149969 0.000000 0.000000 0.000000 6.674419 2.821005 -43.165588 -3.036329 -10.753595 31.453432 0.652837 -14.584129 -8.669750 -0.353252 3.642672 -10.090959 -5.717567 -3.756255 0.618649 5.212476 -4.998184 -4.747150 8.904858 -2.160661 -4.351277 -8.073830 2.159335 -3.094744 17.199501 4.554868 -11.139431 6.591221 2.044770 -3.275222 0.000000 0.000000 0.000000 247.648521 -75.074811 -143.245138 31.064688 -41.788660 12.112925 8.085690 -58.685424 -53.485075 0.000000 0.000000 0.000000 -7.125000 0.000000 0.000000 -70.250895 74.392116 54.381888 0.000000 0.000000 0.000000 -241.140476 -77.795427 164.111188 -33.364055 -43.607722 -13.672645 -39.038767 -44.470735 -17.666156 0.000000 0.000000 0.000000 7.125000 0.000000 0.000000 -7.091078 7.825500 -6.105504
-10.904444 17.064505 -3.292500 7.725035 21.561328 7.436728 0.000000 0.000000 0.000000 -25.089665 3.619813 13.807550 0.476053 4.401263 12.212054 0.041060 -14.138174 -10.400929 1.601728 -7.976146 -22.644838 0.000000 0.000000 0.000000 6.662538 3.137110 -42.988277 -3.041557 -10.761990 31.481463 0.678574 -14.665959 -7.384299 -0.243304 2.919744 -8.074418 -5.518934 -3.757011 0.672098 5.273652 -4.991967 -4.697099 8.857916 -2.166122 -4.339455 -8.126959 2.130171 -3.300987 17.247402 4.492037 -10.881161 6.617742 2.031640 -3.157343 0.000000 0.000000 0.000000 248.573742 -75.164222 -142.147776 31.089176 -41.808819 12.129250 7.991980 -58.948748 -53.504451 0.000000 0.000000 0.000000 -7.125000 0.000000 0.000000 -70.358491 74.362632 54.448177 0.000000 0.000000 0.000000 -242.210852 -77.884954 163.081277 -33.270809 -43.536844 -13.608390 -38.781834 -44.145771 -17.918413 0.000000 0.000000 0.000000 7.125000 0.000000 0.000000 -6.883556 7.587099 -5.956108
-10.894916 17.065957 -3.234199 7.590802 21.374692 7.311443 0.000000 0.000000 0.000000 -24.980298 3.555819 13.667276 0.532029 4.663744 12.953631 0.033739 -14.103461 -10.293944 1.669991 -8.139369 -23.139706 0.000000 0.000000 0.000000 6.650658 3.453215 -42.810965 -3.046786 -10.770385 31.509495 0.704311 -14.747788 -6.098849 -0.133355 2.196816 -6.057877 -5.320301 -3.757766 0.725547 5.334828 -4.985751 -4.647049 8.810973 -2.171583 -4.327632 -8.180089 2.101006 -3.507231 17.295303 4.429205 -10.622892 6.644264 2.018510 -3.039465 0.000000 0.000000 0.000000 249.498963 -75.253633 -141.050414 31.113663 -41.828979 12.145576 7.898269 -59.212072 -53.523826 0.000000 0.000000 0.000000 -7.125000 0.000000 0.000000 -70.466086 74.333148 54.514465 0.000000 0.000000 0.000000 -243.281228 -77.974482 162.051365 -33.177564 -43.465966 -13.544135 -38.524900 -43.820806 -18.170669 0.000000 0.000000 0.000000 7.125000 0.000000 0.000000 -6.676034 7.348699 -5.806712
-10.884725 17.066503 -3.176320 7.461783 21.156559 7.223321 0.000000 0.000000 0.000000 -24.893586 3.458774 13.368481 0.617024 5.000004 13.914454 0.028362 -14.096262 -10.227508 1.701026 -8.213462 -23.364384 0.000000 0.000000 0.000000 6.665529 3.746017 -42.693101 -3.056258 -10.785500 31.560020 0.704526 -14.708716 -5.037146 -0.071114 1.543052 -4.246850 -5.119514 -3.752448 0.726626 5.391777 -4.970077 -4.588529 8.753036 -2.174146 -4.279454 -8.202402 2.067728 -3.762914 17.316209 4.356479 -10.335571 6.657279 2.003259 -2.902850 0.000000 0.000000 0.000000 250.393109 -75.327482 -140.001763 31.180401 -41.883631 12.190191 7.871180 -59.384970 -53.530635 0.000000 0.000000 0.000000 -7.125000 0.000000 0.000000 -70.501393 74.324942 54.537873 0.000000 0.000000 0.000000 -244.398306 -78.072332 161.014377 -33.125855 -43.426600 -13.508526 -38.318783 -43.509898 -18.404384 0.000000 0.000000 0.000000 7.125000 0.000000 0.000000 -6.504268 7.121327 -5.684538
-10.874006 17.066329 -3.118775 7.336904 20.913424 7.164702 0.000000 0.000000 0.000000 -24.824857 3.335493 12.943851 0.725055 5.394830 15.049317 0.024528 -14.110902 -10.193260 1.702507 -8.216803 -23.374580 0.000000 0.000000 0.000000 6.701636 4.020321 -42.622426 -3.069097 -10.805950 31.628400 0.684483 -14.573670 -4.153058 -0.046742 0.944189 -2.598963 -4.917018 -3.742311 0.686133 5.445372 -4.946897 -4.523286 8.686369 -2.174407 -4.202418 -8.200252 2.031185 -4.057843 17.315686 4.275898 -10.025188 6.659574 1.986324 -2.751363 0.000000 0.000000 0.000000 251.262586 -75.388977 -138.991778 31.280676 -41.965664 12.257264 7.896975 -59.486088 -53.527469 0.000000 0.000000 0.000000 -7.125000 0.000000 0.000000 -70.479316 74.333627 54.527241 0.000000 0.000000 0.000000 -245.552458 -78.176790 159.971772 -33.107119 -43.412250 -13.495658 -38.153004 -43.210147 -18.623380 0.000000 0.000000 0.000000 7.125000 0.000000 0.000000 -6.360885 6.902708 -5.583972
-10.863287 17.066154 -3.061231 7.212025 20.670289 7.106082 0.000000 0.000000 0.000000 -24.756129 3.212211 12.519222 0.833086 5.789656 16.184181 0.020694 -14.125542 -10.159012 1.703989 -8.220143 -23.384776 0.000000 0.000000 0.000000 6.737743 4.294625 -42.551751 -3.081936 -10.826401 31.696780 0.664440 -14.438624 -3.268969 -0.022370 0.345327 -0.951075 -4.714521 -3.732173 0.645639 5.498966 -4.923716 -4.458044 8.619703 -2.174669 -4.125382 -8.198103 1.994643 -4.352771 17.315163 4.195318 -9.714806 6.661869 1.969389 -2.599875 0.000000 0.000000 0.000000 252.132063 -75.450473 -137.981794 31.380951 -42.047696 12.324337 7.922770 -59.587205 -53.524302 0.000000 0.000000 0.000000 -7.125000 0.000000 0.000000 -70.457239 74.342313 54.516610 0.000000 0.000000 0.000000 -246.706610 -78.281249 158.929166 -33.088383 -43.397901 -13.482789 -37.987224 -42.910396 -18.842376 0.000000 0.000000 0.000000 7.125000 0.000000 0.000000 -6.217502 6.684090 -5.483406
-10.852665 17.065836 -3.003939 7.084969 20.426980 7.051666 0.000000 0.000000 0.000000 -24.684419 3.090279 12.096625 0.941855 6.177324 17.301138 0.013764 -14.152517 -10.096820 1.701681 -8.214669 -23.368124 0.000000 0.000000 0.000000 6.793924 4.546018 -42.499056 -3.097764 -10.851485 31.780806 0.643338 -14.289925 -2.441482 -0.000810 -0.171455 0.471006 -4.510295 -3.722365 0.606308 5.553635 -4.900946 -4.397121 8.553591 -2.174753 -4.053547 -8.192167 1.961799 -4.626528 17.311131 4.120377 -9.417956 6.662094 1.953772 -2.456648 0.000000 0.000000 0.000000 253.040051 -75.516843 -136.939232 31.489907 -42.136544 12.397316 7.937901 -59.690910 -53.536515 0.000000 0.000000 0.000000 -7.125000 0.000000 0.000000 -70.493293 74.350982 54.560058 0.000000 0.000000 0.000000 -247.928464 -78.383286 157.815759 -33.073012 -43.386128 -13.472231 -37.822266 -42.595160 -19.041672 0.000000 0.000000 0.000000 7.125000 0.000000 0.000000 -6.078249 6.488824 -5.383542
-10.842788 17.064413 -2.948602 6.941150 20.182334 7.029618 0.000000 0.000000 0.000000 -24.589750 2.978733 11.689686 1.056306 6.509870 18.280214 -0.016998 -14.274462 -9.819466 1.670192 -8.141322 -23.144742 0.000000 0.000000 0.000000 7.004670 4.620992 -42.584807 -3.136602 -10.912254 31.985307 0.614086 -14.036100 -2.049822 -0.000897 -0.056220 0.154378 -4.292751 -3.715103 0.575923 5.616583 -4.881339 -4.369467 8.491747 -2.173475 -4.021768 -8.157076 1.957442 -4.737260 17.280078 4.088860 -9.225307 6.646378 1.948311 -2.377026 0.000000 0.000000 0.000000 254.244572 -75.620749 -135.645823 31.665708 -42.277864 12.515775 7.870915 -59.814540 -53.667146 0.000000 0.000000 0.000000 -7.125000 0.000000 0.000000 -70.976949 74.359522 55.019924 0.000000 0.000000 0.000000 -249.671630 -78.466684 156.157182 -33.083557 -43.394204 -13.479464 -37.663633 -42.160683 -19.089283 0.000000 0.000000 0.000000 7.125000 0.000000 0.000000 -5.970799 6.473370 -5.289076
-10.832912 17.062990 -2.893265 6.797332 19.937688 7.007570 0.000000 0.000000 0.000000 -24.495081 2.867187 11.282747 1.170757 6.842416 19.259291 -0.047760 -14.396407 -9.542112 1.638704 -8.067975 -22.921359 0.000000 0.000000 0.000000 7.215416 4.695966 -42.670558 -3.175440 -10.973024 32.189808 0.584834 -13.782275 -1.658162 -0.000984 0.059016 -0.162249 -4.075208 -3.707841 0.545538 5.679531 -4.861731 -4.341813 8.429903 -2.172197 -3.989989 -8.121986 1.953085 -4.847993 17.249025 4.057342 -9.032658 6.630663 1.942850 -2.297405 0.000000 0.000000 0.000000 255.449094 -75.724656 -134.352413 31.841509 -42.419185 12.634235 7.803929 -59.938170 -53.797776 0.000000 0.000000 0.000000 -7.125000 0.000000 0.000000 -71.460605 74.368062 55.479789 0.000000 0.000000 0.000000 -251.414796 -78.550082 154.498604 -33.094101 -43.402279 -13.486697 -37.504999 -41.726206 -19.136893 0.000000 0.000000 0.000000 7.125000 0.000000 0.000000 -5.863349 6.457916 -5.194611
